<svg width="20" height="20" viewBox="0 0 20 20" fill="none" xmlns="http://www.w3.org/2000/svg">
<path d="M9.5 3C9.77513 3 9.99106 3.21611 9.99121 3.49121V6.06738C9.99121 6.06934 9.99026 6.07129 9.99023 6.07324C10.7194 6.11763 11.4199 6.25777 12.0771 6.46484L13.0098 4.06152C13.1082 3.80612 13.393 3.6781 13.6484 3.77637C13.904 3.87468 14.0319 4.16044 13.9336 4.41602L13.0039 6.81152C13.5446 7.04512 14.0461 7.31835 14.498 7.61133C14.5219 7.56482 14.5518 7.52042 14.5918 7.48242L15.9287 6.19531C16.1253 6.00854 16.4402 6.00848 16.627 6.20508C16.8133 6.40159 16.8133 6.71565 16.6172 6.90234L15.2891 8.18066C16.3583 9.03627 16.9999 9.93816 17 10.4414C17 11.5915 13.6482 14.7471 9.5 14.7471C5.35189 14.747 2 11.8078 2 10.4414C2.00009 9.87429 2.57778 9.02481 3.5498 8.22461C3.53441 8.21345 3.51818 8.20327 3.50391 8.19043L2.16699 6.91211C1.97066 6.72538 1.96092 6.41139 2.15723 6.21484C2.35382 6.01824 2.65887 6.00848 2.85547 6.20508L4.19238 7.49219C4.24524 7.54243 4.28216 7.60305 4.30762 7.66699C4.75263 7.37357 5.25033 7.09981 5.79004 6.86426L4.84082 4.41602C4.74252 4.16043 4.8704 3.87467 5.12598 3.77637C5.38144 3.67822 5.66631 3.80612 5.76465 4.06152L6.71484 6.51465C7.43166 6.28411 8.20304 6.1288 9.00977 6.08301C9.00961 6.07781 9.00879 6.07262 9.00879 6.06738V3.49121C9.00894 3.21615 9.22492 3.00006 9.5 3ZM8.3584 7.14258C5.16858 7.60098 3.03695 9.85222 2.9834 10.4609C3.04374 11.0299 5.0844 13.1484 8.15137 13.6611C6.89378 13.1337 6.01075 11.8906 6.01074 10.4414C6.01074 8.91393 6.99182 7.61551 8.3584 7.14258ZM10.6318 7.13965C12.0035 7.60975 12.9893 8.91028 12.9893 10.4414C12.9893 11.8747 12.1253 13.1054 10.8896 13.6426C13.7291 13.1125 15.7869 11.114 16.0078 10.4512C15.7802 9.75091 13.6039 7.60255 10.6318 7.13965Z" fill="#888888"/>
</svg>
