<svg width="20" height="21" viewBox="0 0 20 21" fill="none" xmlns="http://www.w3.org/2000/svg">
<g clip-path="url(#clip0_216_6201)">
<path d="M9.84407 17.5786C6.0725 17.5786 3 14.4521 3 10.6143C3 6.77649 6.0725 3.65002 9.84407 3.65002C13.6157 3.65002 16.6881 6.77649 16.6881 10.6143C16.6881 11.0973 16.2998 11.4925 15.8251 11.4925C15.3504 11.4925 14.962 11.0973 14.962 10.6143C14.962 7.74253 12.6663 5.40646 9.84407 5.40646C7.02186 5.40646 4.72612 7.74253 4.72612 10.6143C4.72612 13.4861 7.02186 15.8222 9.84407 15.8222C10.3188 15.8222 10.7071 16.2174 10.7071 16.7004C10.7071 17.1834 10.3188 17.5786 9.84407 17.5786Z" fill="#888888"/>
<path d="M17.5943 12.1512L18 6.25836C18.0345 5.78412 17.5512 5.4504 17.1283 5.66117L11.9068 8.25192C11.4839 8.46269 11.4407 9.0511 11.8291 9.32335L16.645 12.6255C17.0333 12.8889 17.5598 12.6255 17.5943 12.16V12.1512Z" fill="#888888"/>
</g>
<defs>
<clipPath id="clip0_216_6201">
<rect width="15" height="13.9286" fill="white" transform="translate(3 3.65002)"/>
</clipPath>
</defs>
</svg>
