<svg width="20" height="20" viewBox="0 0 20 20" fill="none" xmlns="http://www.w3.org/2000/svg">
<path d="M3.5 9.5C3.78722 10.0744 4.38382 10.8964 5.28978 11.6459M10.5 13.5V16.5M10.5 13.5C11.5748 13.5 12.5293 13.3075 13.3634 13M10.5 13.5C8.22335 13.5 6.48661 12.6361 5.28978 11.6459M17.5 9.5C17.2128 10.0744 16.6162 10.8964 15.7102 11.6459M6.5 15.5L7.5 13M14.5 15.5L13.3634 13M13.3634 13C14.2961 12.6562 15.0784 12.1687 15.7102 11.6459M17.5 13.5L15.7102 11.6459M3.5 13.5L5.28978 11.6459" stroke="#888888" stroke-linecap="round"/>
</svg>
