<svg width="20" height="20" viewBox="0 0 20 20" fill="none" xmlns="http://www.w3.org/2000/svg">
<path d="M16.2788 11.7407C16.2788 11.7407 16.2591 11.7307 16.2493 11.7208C17.3411 10.8658 18.0001 9.95112 18.0001 9.43413C18.0001 8.27092 14.646 5 10.4952 5C6.34436 5 3.0001 8.04225 3.0001 9.43413C3.0001 10.0207 3.6001 10.8757 4.59354 11.681C4.56404 11.7009 4.53453 11.7109 4.50502 11.7407L3.16731 13.0431C2.97059 13.232 2.96076 13.5501 3.15748 13.749C3.25584 13.8484 3.38371 13.8981 3.51158 13.8981C3.62961 13.8981 3.75748 13.8484 3.85584 13.7589L5.19354 12.4565C5.2624 12.3869 5.30174 12.2974 5.32141 12.208C5.77387 12.5062 6.27551 12.7746 6.82633 13.0133L5.85256 15.5684C5.7542 15.8268 5.88207 16.1152 6.13781 16.2146C6.19682 16.2345 6.25584 16.2444 6.31485 16.2444C6.51158 16.2444 6.69846 16.1251 6.77715 15.9263L7.76076 13.3513C8.47879 13.58 9.246 13.7191 10.0427 13.7688C10.0329 13.8086 10.0132 13.8484 10.0132 13.8981V16.5029C10.0132 16.7813 10.2296 17 10.505 17C10.7804 17 10.9968 16.7813 10.9968 16.5029V13.8981C10.9968 13.8981 10.987 13.8086 10.9673 13.7688C11.6952 13.7291 12.3935 13.5899 13.0526 13.3911L14.0263 15.9263C14.105 16.1251 14.2919 16.2444 14.4886 16.2444C14.5476 16.2444 14.6067 16.2345 14.6657 16.2146C14.9214 16.1152 15.0493 15.8268 14.9509 15.5684L13.987 13.053C14.528 12.8244 15.0394 12.546 15.4919 12.2577C15.5116 12.3273 15.5509 12.3969 15.6099 12.4565L16.9476 13.7589C17.046 13.8484 17.164 13.8981 17.2919 13.8981C17.4198 13.8981 17.5476 13.8484 17.646 13.749C17.8329 13.5501 17.8329 13.232 17.6362 13.0431L16.2985 11.7407H16.2788ZM10.505 5.9942C14.046 5.9942 16.7608 8.63877 17.0165 9.43413C16.7608 10.2096 14.046 12.7945 10.505 12.7945C6.69846 12.7945 4.05256 10.1002 3.98371 9.44408C4.04272 8.75808 6.68863 6.00414 10.505 6.00414V5.9942Z" fill="#888888"/>
<path d="M3.5 9.5C3.78722 10.0744 4.38382 10.8964 5.28978 11.6459M10.5 13.5V16.5M10.5 13.5C11.5748 13.5 12.5293 13.3075 13.3634 13M10.5 13.5C8.22335 13.5 6.48661 12.6361 5.28978 11.6459M17.5 9.5C17.2128 10.0744 16.6162 10.8964 15.7102 11.6459M6.5 15.5L7.5 13M14.5 15.5L13.3634 13M13.3634 13C14.2961 12.6562 15.0784 12.1687 15.7102 11.6459M17.5 13.5L15.7102 11.6459M3.5 13.5L5.28978 11.6459" stroke="#888888" stroke-linecap="round"/>
</svg>
